Coordinates
nRows=5
nColumns=24

# SIMM Motion File Header:
name Coordinates
datacolumns 24
datarows 5
otherdata 1
range 0.62133000000000005000 0.62533000000000005000
endheader
time	pelvis_tx	pelvis_ty	pelvis_tz	pelvis_tilt	pelvis_list	pelvis_rotation	hip_flexion_r	hip_adduction_r	hip_rotation_r	knee_angle_r	ankle_angle_r	subtalar_angle_r	mtp_angle_r	hip_flexion_l	hip_adduction_l	hip_rotation_l	knee_angle_l	ankle_angle_l	subtalar_angle_l	mtp_angle_l	lumbar_extension	lumbar_bending	lumbar_rotation
      0.62133000000000005000	      1.16144026914146250000	      0.85589257062659585000	     -0.32562130649822502000	     -4.08527584107941340000	     -3.07954481563391270000	     11.34569927671856100000	     28.78112167014727500000	     -0.65998623926334521000	      6.34445626581938260000	    -17.43444231863581000000	     -6.01447808009279590000	     -0.00000000000002846154	     -0.00000000000005232727	     -5.12400141767839210000	     -6.03072169441743090000	     15.57584331810668100000	    -31.53687631190475900000	     -7.19956180007596290000	     -0.00000000000004396399	     -0.00000000000049726974	     -5.09410302972611810000	      2.74136484155734280000	     -4.86543554136343110000
      0.62233000000000005000	      1.16279960371929850000	      0.85606737061664584000	     -0.32542890015328441000	     -4.05666243212393240000	     -3.09309745000863550000	     11.31766498182068900000	     28.73493218170334300000	     -0.61743054657938379000	      6.25153376130281210000	    -17.56887036365033700000	     -5.90841299309394860000	     -0.00000000000002912466	     -0.00000000000005169440	     -5.05386548771913620000	     -6.09707270182649990000	     15.53755604855201800000	    -31.76066874905162200000	     -7.72826934212236340000	     -0.00000000000004359058	     -0.00000000000049975154	     -5.11825660729090790000	      2.75253167907419800000	     -4.82946286182416350000
      0.62333000000000005000	      1.16415893829713420000	      0.85624217060669594000	     -0.32523649380834385000	     -4.02804902316845140000	     -3.10665008438335820000	     11.28963068692281800000	     28.68874269325941000000	     -0.57487485389542237000	      6.15861125678624170000	    -17.70329840866486400000	     -5.80234790609510220000	     -0.00000000000002978777	     -0.00000000000005106153	     -4.98372955775988040000	     -6.16342370923556880000	     15.49926877899735400000	    -31.98446118619848400000	     -8.25697688416876300000	     -0.00000000000004321717	     -0.00000000000050223333	     -5.14241018485569870000	      2.76369851659105370000	     -4.79349018228489500000
      0.62433000000000005000	      1.16551466793673320000	      0.85642128452843780000	     -0.32504472849984789000	     -3.99797391238127230000	     -3.11895788344824300000	     11.25937710487824200000	     28.63901349067435100000	     -0.53292318348231915000	      6.06365226816413210000	    -17.83504212857861800000	     -5.69418741300825810000	     -0.00000000000003052686	     -0.00000000000005040470	     -4.91334371448427110000	     -6.22738290504919330000	     15.45719077264884700000	    -32.20942069494273600000	     -8.78036496635085940000	     -0.00000000000004287314	     -0.00000000000050455614	     -5.16870516950313340000	      2.77413681837833610000	     -4.75540123469713460000
      0.62533000000000005000	      1.16687039757633240000	      0.85660039845017966000	     -0.32485296319135198000	     -3.96789880159409240000	     -3.13126568251312730000	     11.22912352283366700000	     28.58928428808929200000	     -0.49097151306921616000	      5.96869327954202240000	    -17.96678584849237100000	     -5.58602691992141410000	     -0.00000000000003126594	     -0.00000000000004974786	     -4.84295787120866270000	     -6.29134210086281610000	     15.41511276630033900000	    -32.43438020368698500000	     -9.30375304853295400000	     -0.00000000000004252910	     -0.00000000000050687895	     -5.19500015415056820000	      2.78457512016561810000	     -4.71731228710937420000
